<svg xmlns="http://www.w3.org/2000/svg" viewBox="0 0 32 32">
  <rect width="32" height="32" rx="6" fill="#0F172A"/>
  <path d="M8 16C8 11.582 11.582 8 16 8C18.55 8 20.826 9.168 22.328 11H19C18.448 11 18 11.448 18 12C18 12.552 18.448 13 19 13H24C24.552 13 25 12.552 25 12V7C25 6.448 24.552 6 24 6C23.448 6 23 6.448 23 7V9.528C21.14 7.384 18.428 6 15.5 6C10.253 6 6 10.253 6 15.5" stroke="#10B981" stroke-width="2.2" stroke-linecap="round" fill="none"/>
  <path d="M24 16C24 20.418 20.418 24 16 24C13.45 24 11.174 22.832 9.672 21H13C13.552 21 14 20.552 14 20C14 19.448 13.552 19 13 19H8C7.448 19 7 19.448 7 20V25C7 25.552 7.448 26 8 26C8.552 26 9 25.552 9 25V22.472C10.86 24.616 13.572 26 16.5 26C21.747 26 26 21.747 26 16.5" stroke="#10B981" stroke-width="2.2" stroke-linecap="round" fill="none"/>
</svg>
